<svg width="30" height="30" viewBox="0 0 30 30" fill="none" xmlns="http://www.w3.org/2000/svg">
<rect width="30" height="30" rx="15" fill="#587B78"/>
<path d="M9.795 6.01175C10.4632 4.8479 11.5022 3.94165 12.7461 3.43785C13.9899 2.93406 15.3668 2.86181 16.6565 3.23266C17.9463 3.60351 19.0745 4.39605 19.8608 5.48358C20.647 6.57112 21.046 7.89086 20.994 9.23186C20.9419 10.5729 20.4417 11.8577 19.5735 12.881C18.7052 13.9042 17.519 14.6069 16.2043 14.8766C14.8897 15.1463 13.5226 14.9675 12.3216 14.3688C11.1205 13.77 10.1549 12.7859 9.579 11.5738C9.19424 11.8552 8.72971 12.0066 8.253 12.0058H7.503V12.3883C7.503 12.6733 7.611 12.9328 7.788 13.1293C7.93925 12.9583 8.13901 12.8374 8.36066 12.7828C8.58231 12.7282 8.81534 12.7424 9.02873 12.8235C9.24212 12.9046 9.42573 13.0488 9.55512 13.2369C9.6845 13.4249 9.75353 13.648 9.753 13.8763C9.75289 14.033 9.72001 14.1881 9.65647 14.3314C9.59294 14.4747 9.50015 14.6032 9.38405 14.7085C9.26796 14.8139 9.13112 14.8938 8.98232 14.9432C8.83353 14.9926 8.67605 15.0103 8.52 14.9953C7.84442 14.9715 7.20443 14.6865 6.7349 14.2002C6.26537 13.7139 6.00297 13.0642 6.003 12.3883V6.76025C6.003 6.56134 6.08202 6.37058 6.22267 6.22992C6.36332 6.08927 6.55409 6.01025 6.753 6.01025H9.753L9.795 6.01175ZM10.503 9.17825C10.5497 10.3553 11.0562 11.4672 11.9136 12.275C12.771 13.0828 13.9109 13.5222 15.0887 13.4989C16.2665 13.4755 17.3882 12.9912 18.2128 12.15C19.0375 11.3088 19.4995 10.1778 19.4995 8.99975C19.4995 7.82174 19.0375 6.6907 18.2128 5.84949C17.3882 5.00829 16.2665 4.52401 15.0887 4.50064C13.9109 4.47727 12.771 4.91668 11.9136 5.72451C11.0562 6.53234 10.5497 7.64417 10.503 8.82125V9.17825ZM9.003 8.79275V7.51025H7.503V10.5058H8.253C8.45191 10.5058 8.64268 10.4267 8.78333 10.2861C8.92398 10.1454 9.003 9.95467 9.003 9.75575V9.20675C8.99833 9.06879 8.99833 8.93071 9.003 8.79275ZM4.5 19.4998C4.5 17.8303 5.8545 16.4998 7.5135 16.4998H22.5C23.2956 16.4998 24.0587 16.8158 24.6213 17.3784C25.1839 17.941 25.5 18.7041 25.5 19.4998C25.5 22.0363 24.2505 23.9488 22.2975 25.1953C20.3745 26.4208 17.7825 26.9998 15 26.9998C12.2175 26.9998 9.6255 26.4208 7.7025 25.1953C5.7495 23.9503 4.5 22.0348 4.5 19.4998ZM7.5135 17.9998C6.672 17.9998 6 18.6703 6 19.4998C6 21.4633 6.933 22.9258 8.5095 23.9293C10.1145 24.9538 12.3975 25.4998 15 25.4998C17.6025 25.4998 19.8855 24.9538 21.4905 23.9293C23.0655 22.9243 24 21.4648 24 19.4998C24 19.1019 23.842 18.7204 23.5607 18.4391C23.2794 18.1578 22.8978 17.9998 22.5 17.9998H7.5135Z" fill="#F6F6F6"/>
</svg>
