<svg width="30" height="30" viewBox="0 0 30 30" fill="none" xmlns="http://www.w3.org/2000/svg">
<rect width="30" height="30" rx="15" fill="#587B78"/>
<path d="M3.09998 11.8229V6.17693C3.10011 5.89844 3.17261 5.62549 3.30935 5.38864C3.44609 5.1518 3.64166 4.96042 3.87418 4.83593L8.07418 2.58593C8.2685 2.4819 8.48275 2.42773 8.69998 2.42773C8.91721 2.42773 9.13146 2.4819 9.32578 2.58593L13.5258 4.83593C13.7583 4.96042 13.9539 5.1518 14.0906 5.38864C14.2273 5.62549 14.2998 5.89844 14.3 6.17693V11.8229C14.3001 12.1017 14.2277 12.375 14.091 12.6121C13.9542 12.8492 13.7585 13.0408 13.5258 13.1654L9.32578 15.4154C9.13146 15.5195 8.91721 15.5736 8.69998 15.5736C8.48275 15.5736 8.2685 15.5195 8.07418 15.4154L3.87418 13.1654C3.64145 13.0408 3.44573 12.8492 3.30898 12.6121C3.17223 12.375 3.09985 12.1017 3.09998 11.8229ZM4.55598 6.45893C4.4838 6.64214 4.48248 6.84855 4.55232 7.03279C4.62215 7.21704 4.75742 7.36402 4.92838 7.44143L7.99998 8.83043V12.7499C7.99998 12.9488 8.07373 13.1396 8.205 13.2803C8.33628 13.4209 8.51432 13.4999 8.69998 13.4999C8.88563 13.4999 9.06367 13.4209 9.19495 13.2803C9.32623 13.1396 9.39998 12.9488 9.39998 12.7499V8.83043L12.4716 7.44143C12.6387 7.36133 12.7699 7.21424 12.8371 7.0317C12.9042 6.84916 12.9019 6.64571 12.8306 6.46498C12.7594 6.28424 12.6249 6.14062 12.4559 6.0649C12.287 5.98918 12.0971 5.9874 11.927 6.05993L8.69998 7.51943L5.47158 6.05993C5.30059 5.9826 5.10793 5.98119 4.93597 6.05601C4.76401 6.13084 4.62683 6.27576 4.55458 6.45893H4.55598ZM3.85878 21.3749V14.8349L5.25878 15.5849V21.3749C5.25878 21.9974 5.72918 22.4999 6.30878 22.4999H6.67138C6.83204 21.6522 7.26129 20.8901 7.88639 20.3427C8.5115 19.7952 9.29403 19.4962 10.1014 19.4962C10.9087 19.4962 11.6912 19.7952 12.3164 20.3427C12.9415 20.8901 13.3707 21.6522 13.5314 22.4999H15.0714C15.2569 21.5255 15.796 20.6699 16.5703 20.1213C17.3446 19.5728 18.2905 19.3763 19.2 19.5749V7.12493C19.2 6.82656 19.0893 6.54042 18.8924 6.32944C18.6955 6.11846 18.4285 5.99993 18.15 5.99993H15.6944C15.6649 5.46355 15.5014 4.94551 15.2212 4.49993H18.1486C19.5024 4.49993 20.5986 5.67593 20.5986 7.12493V8.99993H21.8334C22.2236 8.99995 22.6061 9.11644 22.9379 9.33635C23.2698 9.55626 23.5379 9.87088 23.7122 10.2449L25.9774 15.0974C26.123 15.4109 26.2 15.7544 26.2 16.1039V21.7499C26.2 22.3467 25.9787 22.919 25.5849 23.3409C25.1911 23.7629 24.6569 23.9999 24.1 23.9999H21.93C21.7693 24.8477 21.3401 25.6098 20.715 26.1572C20.0898 26.7046 19.3073 27.0037 18.5 27.0037C17.6926 27.0037 16.9101 26.7046 16.285 26.1572C15.6599 25.6098 15.2306 24.8477 15.07 23.9999H13.53C13.3693 24.8477 12.9401 25.6098 12.315 26.1572C11.6898 26.7046 10.9073 27.0037 10.1 27.0037C9.29263 27.0037 8.5101 26.7046 7.88499 26.1572C7.25989 25.6098 6.83064 24.8477 6.66998 23.9999H6.30738C5.65759 23.9999 5.03443 23.7234 4.57496 23.2311C4.1155 22.7388 3.85738 22.0711 3.85738 21.3749H3.85878ZM21.93 22.4999H24.1C24.2856 22.4999 24.4637 22.4209 24.5949 22.2803C24.7262 22.1396 24.8 21.9488 24.8 21.7499V16.4999H20.6V20.2499C21.272 20.7899 21.7578 21.5849 21.93 22.4999ZM24.3688 14.9999L22.462 10.9154C22.404 10.7907 22.3147 10.6858 22.2042 10.6124C22.0936 10.539 21.9662 10.5001 21.8362 10.4999H20.6V14.9999H24.366H24.3688ZM7.99998 23.2499C7.99998 23.8467 8.22122 24.419 8.61505 24.8409C9.00888 25.2629 9.54302 25.4999 10.1 25.4999C10.6569 25.4999 11.1911 25.2629 11.5849 24.8409C11.9787 24.419 12.2 23.8467 12.2 23.2499C12.2 22.6532 11.9787 22.0809 11.5849 21.6589C11.1911 21.237 10.6569 20.9999 10.1 20.9999C9.54302 20.9999 9.00888 21.237 8.61505 21.6589C8.22122 22.0809 7.99998 22.6532 7.99998 23.2499ZM18.5 25.4999C19.0569 25.4999 19.5911 25.2629 19.9849 24.8409C20.3787 24.419 20.6 23.8467 20.6 23.2499C20.6 22.6532 20.3787 22.0809 19.9849 21.6589C19.5911 21.237 19.0569 20.9999 18.5 20.9999C17.943 20.9999 17.4089 21.237 17.0151 21.6589C16.6212 22.0809 16.4 22.6532 16.4 23.2499C16.4 23.8467 16.6212 24.419 17.0151 24.8409C17.4089 25.2629 17.943 25.4999 18.5 25.4999Z" fill="#F6F6F6"/>
</svg>
