<svg width="30" height="30" viewBox="0 0 30 30" fill="none" xmlns="http://www.w3.org/2000/svg">
<rect width="30" height="30" rx="15" fill="#587B78"/>
<path d="M13.7813 26.25V23.5625C12.6771 23.3125 11.7242 22.8333 10.9225 22.125C10.12 21.4167 9.53125 20.4167 9.15625 19.125L11.4688 18.1875C11.7813 19.1875 12.245 19.9479 12.86 20.4688C13.4742 20.9896 14.2813 21.25 15.2813 21.25C16.1354 21.25 16.8596 21.0575 17.4538 20.6725C18.0471 20.2867 18.3438 19.6875 18.3438 18.875C18.3438 18.1458 18.1146 17.5675 17.6563 17.14C17.1979 16.7133 16.1354 16.2292 14.4688 15.6875C12.6771 15.125 11.4479 14.4533 10.7813 13.6725C10.1146 12.8908 9.78125 11.9375 9.78125 10.8125C9.78125 9.45833 10.2188 8.40625 11.0938 7.65625C11.9688 6.90625 12.8646 6.47917 13.7813 6.375V3.75H16.2813V6.375C17.3229 6.54167 18.1825 6.92167 18.86 7.515C19.5367 8.10917 20.0313 8.83333 20.3438 9.6875L18.0313 10.6875C17.7813 10.0208 17.4271 9.52083 16.9688 9.1875C16.5104 8.85417 15.8854 8.6875 15.0938 8.6875C14.1771 8.6875 13.4792 8.89083 13 9.2975C12.5208 9.70333 12.2813 10.2083 12.2813 10.8125C12.2813 11.5 12.5938 12.0417 13.2188 12.4375C13.8438 12.8333 14.9271 13.25 16.4688 13.6875C17.9063 14.1042 18.995 14.7654 19.735 15.6712C20.4742 16.5779 20.8438 17.625 20.8438 18.8125C20.8438 20.2917 20.4063 21.4167 19.5313 22.1875C18.6563 22.9583 17.5729 23.4375 16.2813 23.625V26.25H13.7813Z" fill="#F6F6F6"/>
</svg>
